<?xml version="1.0" standalone="no"?>
<!DOCTYPE svg PUBLIC "-//W3C//DTD SVG 20010904//EN"
 "http://www.w3.org/TR/2001/REC-SVG-20010904/DTD/svg10.dtd">
<svg version="1.0" xmlns="http://www.w3.org/2000/svg"
 width="260.000000pt" height="260.000000pt" viewBox="0 0 260.000000 260.000000"
 preserveAspectRatio="xMidYMid meet">
<metadata>
Created by potrace 1.11, written by Peter Selinger 2001-2013
</metadata>
<g transform="translate(0.000000,260.000000) scale(0.100000,-0.100000)"
fill="#000000" stroke="none">
<path d="M1177 2382 c-164 -58 -212 -274 -88 -398 49 -49 97 -68 173 -69 l67
0 35 -73 34 -73 -63 -63 c-85 -86 -109 -147 -109 -276 0 -83 4 -102 28 -152
32 -67 108 -149 167 -179 23 -11 42 -19 44 -17 10 13 29 58 36 86 6 29 4 34
-18 43 -14 5 -41 26 -60 46 -160 164 -44 434 186 433 151 -1 278 -162 239
-304 -6 -23 -12 -90 -13 -149 l-3 -109 35 34 c105 101 140 255 91 403 -30 93
-122 190 -213 225 -63 24 -156 31 -232 18 l-41 -7 -36 75 -36 76 39 44 c46 53
66 115 58 188 -6 60 -18 85 -62 134 -63 71 -167 96 -258 64z m160 -86 c77 -40
105 -134 64 -214 -41 -80 -132 -110 -211 -69 -61 31 -83 65 -88 134 -3 48 0
64 20 93 47 70 141 95 215 56z"/>
<path d="M1100 1764 c-180 -39 -328 -170 -400 -354 l-25 -65 -3 -567 -3 -568
126 0 125 0 0 270 c0 149 3 270 8 270 4 0 21 -8 37 -18 17 -11 59 -29 95 -42
95 -34 256 -33 355 2 227 80 377 285 378 518 0 47 -5 110 -12 140 -19 81 -75
188 -129 247 -40 44 -51 51 -78 47 -70 -8 -132 -51 -164 -113 l-19 -37 49 -42
c72 -62 105 -136 104 -232 0 -94 -26 -154 -95 -221 -130 -126 -328 -117 -452
21 -96 107 -105 265 -20 379 14 20 36 44 47 54 26 22 103 62 136 70 19 5 34
25 62 85 21 45 54 95 77 117 35 34 38 41 23 47 -29 11 -153 7 -222 -8z"/>
</g>
</svg>
